#N canvas 67 89 669 376 10;
#X obj 52 131 inlet;
#X obj 89 236 expr ($f5-$f4)/($f3-$f2)*$f1+$f4-($f5-$f4)/($f3-$f2)*$f2
;
#X obj 89 273 outlet;
#X floatatom 56 155 5 0 0 0 - - -, f 5;
#X obj 172 136 float \$1;
#X obj 255 136 float \$2;
#X obj 338 136 float \$3;
#X obj 422 135 float \$4;
#X obj 98 155 inlet;
#X obj 110 177 unpack 0 1 2 3;
#X floatatom 148 264 5 0 0 0 - - -, f 5;
#X obj 215 71 loadbang;
#X connect 0 0 1 0;
#X connect 0 0 3 0;
#X connect 1 0 2 0;
#X connect 1 0 10 0;
#X connect 4 0 1 1;
#X connect 5 0 1 2;
#X connect 6 0 1 3;
#X connect 7 0 1 4;
#X connect 8 0 9 0;
#X connect 9 0 1 1;
#X connect 9 1 1 2;
#X connect 9 2 1 3;
#X connect 9 3 1 4;
#X connect 11 0 4 0;
#X connect 11 0 5 0;
#X connect 11 0 6 0;
#X connect 11 0 7 0;
